<svg width="53" height="69" viewBox="0 0 53 69" fill="none" xmlns="http://www.w3.org/2000/svg">
<rect y="0.0390625" width="52.65" height="68.25" rx="26.325" fill="#C1B9B4"/>
<path d="M24.8627 44.889C24.8627 45.6968 25.5175 46.3515 26.3252 46.3515C27.1329 46.3515 27.7877 45.6968 27.7877 44.889L24.8627 44.889ZM27.3593 22.4049C26.7882 21.8338 25.8622 21.8338 25.2911 22.4049L15.9838 31.7122C15.4126 32.2833 15.4126 33.2093 15.9838 33.7805C16.5549 34.3516 17.4809 34.3516 18.052 33.7805L26.3252 25.5073L34.5983 33.7805C35.1695 34.3516 36.0955 34.3516 36.6666 33.7805C37.2378 33.2093 37.2378 32.2833 36.6666 31.7122L27.3593 22.4049ZM27.7877 44.889L27.7877 23.439L24.8627 23.439L24.8627 44.889L27.7877 44.889Z" fill="#644F43"/>
</svg>
