<svg width="52" height="53" viewBox="0 0 52 53" fill="none" xmlns="http://www.w3.org/2000/svg">
<circle cx="26" cy="26.6743" r="26" fill="white"/>
<path fill-rule="evenodd" clip-rule="evenodd" d="M22.8249 17.5599L30.9893 25.763C31.4903 26.2664 31.4903 27.0825 30.9893 27.5859L22.8249 35.789C22.3239 36.2923 21.5116 36.2923 21.0106 35.789C20.5096 35.2856 20.5096 34.4694 21.0106 33.9661L28.2678 26.6744L21.0106 19.3828C20.5096 18.8794 20.5096 18.0633 21.0106 17.5599C21.5116 17.0565 22.3239 17.0565 22.8249 17.5599Z" fill="#251A00"/>
<path fill-rule="evenodd" clip-rule="evenodd" d="M22.8249 17.5599L30.9893 25.763C31.4903 26.2664 31.4903 27.0825 30.9893 27.5859L22.8249 35.789C22.3239 36.2923 21.5116 36.2923 21.0106 35.789C20.5096 35.2856 20.5096 34.4694 21.0106 33.9661L28.2678 26.6744L21.0106 19.3828C20.5096 18.8794 20.5096 18.0633 21.0106 17.5599C21.5116 17.0565 22.3239 17.0565 22.8249 17.5599Z" fill="#644F43"/>
</svg>
