<svg width="48" height="48" viewBox="0 0 48 48" fill="none" xmlns="http://www.w3.org/2000/svg">
<g id="material-symbols:menu">
<path id="Vector" d="M34.7914 15.6257C35.4589 14.9582 35.4589 13.876 34.7914 13.2086C34.124 12.5411 33.0418 12.5411 32.3743 13.2086L25.4142 20.1686C24.6332 20.9497 23.3668 20.9497 22.5858 20.1686L15.6257 13.2086C14.9582 12.5411 13.876 12.5411 13.2086 13.2086C12.5411 13.876 12.5411 14.9582 13.2086 15.6257L20.1686 22.5858C20.9497 23.3668 20.9497 24.6332 20.1686 25.4142L13.2086 32.3743C12.5411 33.0418 12.5411 34.124 13.2086 34.7914C13.876 35.4589 14.9582 35.4589 15.6257 34.7914L22.5858 27.8314C23.3668 27.0503 24.6332 27.0503 25.4142 27.8314L32.3743 34.7914C33.0418 35.4589 34.124 35.4589 34.7914 34.7914C35.4589 34.124 35.4589 33.0418 34.7914 32.3743L27.8314 25.4142C27.0503 24.6332 27.0503 23.3668 27.8314 22.5858L34.7914 15.6257Z" fill="#000000"/>
</g>
</svg>
