<svg width="25" height="25" viewBox="0 0 25 25" fill="none" xmlns="http://www.w3.org/2000/svg">
<mask id="mask0_1_1300" style="mask-type:alpha" maskUnits="userSpaceOnUse" x="0" y="0" width="25" height="25">
<rect x="0.440002" y="0.459961" width="24" height="24" fill="#D9D9D9"/>
</mask>
<g mask="url(#mask0_1_1300)">
<path d="M12.6065 21.868C12.3731 21.868 12.1398 21.8263 11.9065 21.743C11.6731 21.6596 11.4648 21.5346 11.2815 21.368C10.1981 20.368 9.23981 19.393 8.40648 18.443C7.57314 17.493 6.87731 16.5721 6.31898 15.6805C5.76064 14.7888 5.33564 13.9305 5.04398 13.1055C4.75231 12.2805 4.60648 11.493 4.60648 10.743C4.60648 8.24297 5.41064 6.2513 7.01898 4.76797C8.62731 3.28464 10.4898 2.54297 12.6065 2.54297C14.7231 2.54297 16.5856 3.28464 18.194 4.76797C19.8023 6.2513 20.6065 8.24297 20.6065 10.743C20.6065 11.493 20.4606 12.2805 20.169 13.1055C19.8773 13.9305 19.4523 14.7888 18.894 15.6805C18.3356 16.5721 17.6398 17.493 16.8065 18.443C15.9731 19.393 15.0148 20.368 13.9315 21.368C13.7481 21.5346 13.5398 21.6596 13.3065 21.743C13.0731 21.8263 12.8398 21.868 12.6065 21.868ZM12.6065 12.543C13.1565 12.543 13.6273 12.3471 14.019 11.9555C14.4106 11.5638 14.6065 11.093 14.6065 10.543C14.6065 9.99297 14.4106 9.52214 14.019 9.13047C13.6273 8.7388 13.1565 8.54297 12.6065 8.54297C12.0565 8.54297 11.5856 8.7388 11.194 9.13047C10.8023 9.52214 10.6065 9.99297 10.6065 10.543C10.6065 11.093 10.8023 11.5638 11.194 11.9555C11.5856 12.3471 12.0565 12.543 12.6065 12.543Z" fill="#644F43"/>
</g>
</svg>
