<svg width="24" height="25" viewBox="0 0 24 25" fill="none" xmlns="http://www.w3.org/2000/svg">
<mask id="mask0_185_355" style="mask-type:alpha" maskUnits="userSpaceOnUse" x="0" y="0" width="24" height="25">
<rect y="0.330566" width="24" height="24" fill="#D9D9D9"/>
</mask>
<g mask="url(#mask0_185_355)">
<path d="M12 21.6556C11.7667 21.6556 11.5333 21.6139 11.3 21.5306C11.0667 21.4472 10.8583 21.3222 10.675 21.1556C9.59167 20.1556 8.63333 19.1806 7.8 18.2306C6.96667 17.2806 6.27083 16.3597 5.7125 15.4681C5.15417 14.5764 4.72917 13.7181 4.4375 12.8931C4.14583 12.0681 4 11.2806 4 10.5306C4 8.03057 4.80417 6.0389 6.4125 4.55557C8.02083 3.07223 9.88333 2.33057 12 2.33057C14.1167 2.33057 15.9792 3.07223 17.5875 4.55557C19.1958 6.0389 20 8.03057 20 10.5306C20 11.2806 19.8542 12.0681 19.5625 12.8931C19.2708 13.7181 18.8458 14.5764 18.2875 15.4681C17.7292 16.3597 17.0333 17.2806 16.2 18.2306C15.3667 19.1806 14.4083 20.1556 13.325 21.1556C13.1417 21.3222 12.9333 21.4472 12.7 21.5306C12.4667 21.6139 12.2333 21.6556 12 21.6556ZM12 12.3306C12.55 12.3306 13.0208 12.1347 13.4125 11.7431C13.8042 11.3514 14 10.8806 14 10.3306C14 9.78057 13.8042 9.30973 13.4125 8.91807C13.0208 8.5264 12.55 8.33057 12 8.33057C11.45 8.33057 10.9792 8.5264 10.5875 8.91807C10.1958 9.30973 10 9.78057 10 10.3306C10 10.8806 10.1958 11.3514 10.5875 11.7431C10.9792 12.1347 11.45 12.3306 12 12.3306Z" fill="#A3897A"/>
</g>
</svg>
