<svg width="198" height="74" viewBox="0 0 198 74" fill="none" xmlns="http://www.w3.org/2000/svg">
<path d="M100.638 53.4749C100.638 55.3632 100.273 56.7277 99.1401 58.3237C98.0075 59.9196 96.8628 61.077 94.7804 62.478C93.2338 63.5258 76.8789 73.2599 76.8789 73.2599C76.8789 73.2599 58.2102 63.5867 55.9573 62.2709C54.1185 61.1988 52.7667 59.7491 51.8047 58.0556C50.8304 56.3744 50.3433 54.7663 50.3433 53.219L50.319 40.4026C50.319 39.0016 50.6478 37.6736 51.2932 36.3822C51.9508 35.103 52.8154 33.97 53.8871 32.9832C54.9709 31.9964 56.14 31.2167 57.4187 30.6441C58.6973 30.0715 62.2168 29.572 64.4331 29.9009C67.9769 30.4248 75.2958 32.7274 75.2958 32.7274C75.2958 32.7274 82.773 30.1202 85.1111 29.6695C88.5453 29.0116 92.2717 29.9131 94.0375 30.7903C95.5232 31.5213 97.082 32.7639 98.5068 34.4695C99.9316 36.1873 100.516 39.428 100.589 41.1823C100.808 45.7631 100.614 53.4749 100.614 53.4749M90.0188 49.5398V46.1164C90.0067 44.6423 89.7509 41.292 88.6793 40.2686C87.5954 39.233 85.6957 38.7945 83.869 39.3305C80.9463 40.1833 75.7951 41.8767 75.7951 41.8767C75.7951 41.8767 69.9132 39.6716 66.138 39.3671C64.7254 39.2574 63.057 40.0128 62.3629 40.7559C61.6687 41.4869 61.1207 43.3143 61.1207 44.1428V49.4667C61.1695 51.0748 61.6322 53.2799 62.6186 54.0718C66.3938 57.1176 76.5866 61.8445 76.5866 61.8445C76.5866 61.8445 87.4493 54.7297 88.4722 53.9865C89.4952 53.2434 90.0067 51.2576 90.0067 49.5398" fill="#EF7723"/>
<path d="M43.2802 56.1673H48.5653V70.8721H39.5415L38.8109 65.7553H10.4243L9.69358 70.8721H0V56.1673H5.07817C6.96574 54.3521 7.96433 51.5866 8.34184 47.1276L9.20647 37.4178C9.20647 37.4178 9.18211 35.2736 11.0575 33.0929C12.6406 31.2411 15.7703 30.9365 15.7703 30.9365H43.2802V56.1673ZM20.1909 40.1103L19.5089 48.1388C19.2045 51.4404 18.5225 54.011 17.39 56.1673H32.113V40.1103H20.2031H20.1909Z" fill="#251A00"/>
<path d="M140.472 30.9365H151.249V65.7431H140.07V46.7256L130.802 56.9105H125.749L116.481 46.7256V65.7431H105.302V30.9365H116.153L128.269 45.5804L140.472 30.9365Z" fill="#251A00"/>
<path d="M197.294 44.0941C197.525 35.2614 190.364 30.1934 177.334 30.1934C171.598 30.1934 165.4 30.5467 159.81 31.9842V41.694C164.949 40.0615 168.456 39.0382 176.153 38.9285C182.717 38.831 185.298 40.1712 185.298 43.887V44.7641C181.718 44.021 177.602 43.692 174.204 43.692C162.282 43.692 156.145 48.0779 156.145 55.3632C156.145 61.8446 161.089 66.5837 171.586 66.5837C177.492 66.5837 182.705 65.2436 187.734 62.5755L190.791 65.7553H197.294C197.294 65.7553 196.928 58.3481 197.294 44.1062M175.093 58.6039C171.172 58.6039 168.737 57.1907 168.737 54.8272C168.737 52.1348 171.769 50.7094 176.798 50.7094C179.27 50.7094 182.254 51.1114 185.481 51.8546C185.055 55.7044 180.89 58.6039 175.093 58.6039Z" fill="#251A00"/>
<path d="M39.6511 3.76855V8.36151H33.6596V19.9109H27.7534V8.36151H21.6888V3.76855H39.6511Z" fill="#251A00"/>
<path d="M59.1844 3.76855H64.4453V19.9109H58.6364V11.0905L54.4716 15.8053H51.9995L47.8225 11.0905V19.9109H42.0258V3.76855H47.3232L53.2295 10.5544L59.1844 3.76855Z" fill="#251A00"/>
<path d="M66.5764 11.9308C66.5764 6.81397 69.2921 3.36621 77.1346 3.36621C83.8203 3.36621 87.6685 6.81397 87.6685 11.9308C87.6685 17.0476 84.831 20.4954 77.1346 20.4954C69.4382 20.4954 66.5764 17.0476 66.5764 11.9308ZM81.7622 11.9308C81.7622 9.46985 80.9098 7.78861 77.1346 7.78861C73.0794 7.78861 72.4827 9.46985 72.4827 11.9308C72.4827 14.3917 73.3351 16.073 77.1346 16.073C80.654 16.073 81.7622 14.4283 81.7622 11.9308Z" fill="#251A00"/>
<path d="M123.934 20.2763V25.3444H118.125V20.2763C111.294 20.2763 108.298 16.6214 108.298 11.8335C108.298 7.04565 110.916 3.35422 118.125 3.35422V0.259766H123.934V3.35422C130.9 3.35422 133.725 7.02128 133.725 11.8335C133.725 16.6458 131.156 20.2032 123.934 20.2763ZM118.308 15.927V7.70352C114.91 7.70352 114.034 9.57969 114.034 11.8335C114.034 14.0874 114.667 15.927 118.308 15.927ZM123.715 15.927C127.527 15.927 128.038 14.0508 128.038 11.8335C128.038 9.61624 127.283 7.70352 123.715 7.70352V15.927Z" fill="#251A00"/>
<path d="M141.239 13.6853C141.336 15.3787 143.187 16.4386 146.682 16.4386C150.117 16.4386 153.295 15.9269 153.478 15.7076V19.5696C153.478 19.5696 151.334 20.4224 145.501 20.3249C137.573 20.1787 135.381 16.9137 135.381 11.8822C135.381 6.85064 138.402 3.3907 145.635 3.37851C153.977 3.35415 155.658 7.99584 155.231 13.6974H141.239V13.6853ZM150.19 10.4324C150.031 8.71463 149.422 7.27705 145.672 7.27705C142.639 7.27705 141.166 8.62935 141.166 10.4324H150.19Z" fill="#251A00"/>
<path d="M178.077 11.8335C178.077 16.8041 174.826 20.2762 169.808 20.2762C167.348 20.2762 164.937 19.8864 163.476 18.5462V25.3443H157.667V3.76837H161.113L162.757 5.2425C164.694 3.93893 167.153 3.42725 169.82 3.42725C174.838 3.42725 178.089 6.86283 178.089 11.8456M172.353 11.8456C172.353 9.40906 170.856 7.75218 168.213 7.75218C165.57 7.75218 163.378 9.67708 163.378 9.67708V13.7218C163.378 13.7218 164.596 15.7929 168.213 15.9513C170.843 16.0609 172.353 14.2944 172.353 11.8578" fill="#251A00"/>
<path d="M198 9.87205C198.11 5.79078 194.846 3.45166 188.928 3.45166C186.321 3.45166 183.508 3.62222 180.975 4.2801V8.76341C183.314 8.00807 184.909 7.53294 188.404 7.4842C191.387 7.43547 192.557 8.0568 192.557 9.77459V10.1766C190.937 9.83551 189.061 9.67713 187.515 9.67713C182.096 9.67713 179.307 11.6995 179.307 15.0742C179.307 18.0712 181.548 20.2641 186.321 20.2641C189.001 20.2641 191.363 19.6427 193.653 18.4123L195.041 19.8742H198C198 19.8742 197.83 16.4508 198 9.87205ZM187.917 16.5727C186.139 16.5727 185.031 15.9148 185.031 14.8305C185.031 13.5878 186.407 12.93 188.696 12.93C189.816 12.93 191.168 13.1127 192.642 13.4538C192.447 15.2325 190.559 16.5727 187.917 16.5727Z" fill="#251A00"/>
<path d="M20.3979 9.87205C20.5075 5.79078 17.1952 3.45166 11.1549 3.45166C8.50016 3.45166 5.62618 3.62222 3.04447 4.2801V8.76341C5.41916 8.00807 7.05099 7.53294 10.6069 7.4842C13.6392 7.43547 14.8448 8.0568 14.8448 9.77459V10.1766C13.1886 9.83551 11.2889 9.67713 9.70577 9.67713C4.18919 9.67713 1.33957 11.6995 1.33957 15.0742C1.33957 18.0712 3.62901 20.2641 8.48798 20.2641C11.228 20.2641 13.6392 19.6427 15.9652 18.4123L17.3778 19.8742H20.3858C20.3858 19.8742 20.2153 16.4508 20.3858 9.87205M10.1076 16.5727C8.29313 16.5727 7.16059 15.9148 7.16059 14.8305C7.16059 13.5878 8.56105 12.93 10.887 12.93C12.0317 12.93 13.4078 13.1127 14.9057 13.4538C14.7109 15.2325 12.7746 16.5727 10.0955 16.5727" fill="#251A00"/>
<path d="M100.163 15.939C97.1063 15.939 95.5841 14.2456 95.5841 11.8455C95.5841 9.44548 97.1916 7.75206 100.126 7.75206C101.783 7.75206 105.777 8.30029 106.41 8.98253L106.459 8.9338V4.24338C104.401 3.62205 101.904 3.36621 99.7246 3.36621C93.2947 3.36621 89.5439 6.87489 89.5439 11.8455C89.5439 16.8161 93.2947 20.3248 99.6759 20.3248C101.831 20.3248 104.303 20.0812 106.447 19.472V14.611C105.119 15.6588 101.941 15.9512 100.151 15.9512" fill="#251A00"/>
</svg>
