<svg width="25" height="25" viewBox="0 0 25 25" fill="none" xmlns="http://www.w3.org/2000/svg">
<mask id="mask0_1_1316" style="mask-type:alpha" maskUnits="userSpaceOnUse" x="0" y="0" width="25" height="25">
<rect x="0.440002" y="0.299805" width="24" height="24" fill="#D9D9D9"/>
</mask>
<g mask="url(#mask0_1_1316)">
<path d="M7.93992 21.5496C7.48159 21.5496 7.08923 21.3864 6.76284 21.0601C6.43645 20.7337 6.27325 20.3413 6.27325 19.883V4.88298C6.27325 4.42464 6.43645 4.03228 6.76284 3.70589C7.08923 3.3795 7.48159 3.21631 7.93992 3.21631H16.2733C16.7316 3.21631 17.124 3.3795 17.4503 3.70589C17.7767 4.03228 17.9399 4.42464 17.9399 4.88298V19.883C17.9399 20.3413 17.7767 20.7337 17.4503 21.0601C17.124 21.3864 16.7316 21.5496 16.2733 21.5496H7.93992ZM12.1066 19.4663C12.3427 19.4663 12.5406 19.3864 12.7003 19.2267C12.8601 19.067 12.9399 18.8691 12.9399 18.633C12.9399 18.3969 12.8601 18.1989 12.7003 18.0392C12.5406 17.8795 12.3427 17.7996 12.1066 17.7996C11.8705 17.7996 11.6726 17.8795 11.5128 18.0392C11.3531 18.1989 11.2733 18.3969 11.2733 18.633C11.2733 18.8691 11.3531 19.067 11.5128 19.2267C11.6726 19.3864 11.8705 19.4663 12.1066 19.4663ZM7.93992 15.7163H16.2733V7.38298H7.93992V15.7163Z" fill="#644F43"/>
</g>
</svg>
