<svg width="62" height="63" viewBox="0 0 62 63" fill="none" xmlns="http://www.w3.org/2000/svg">
<rect y="0.259766" width="62" height="62" rx="15" fill="#A3897A"/>
<path d="M23.1745 33.348L16.2203 31.1006C16.2203 31.1006 15.3892 30.7661 15.6568 30.0077C15.7119 29.8513 15.823 29.7182 16.1555 29.4895C17.6963 28.4243 44.6758 18.806 44.6758 18.806C44.6758 18.806 45.4376 18.5514 45.8868 18.7207C45.998 18.7548 46.098 18.8176 46.1766 18.9027C46.2553 18.9877 46.3098 19.092 46.3345 19.2047C46.383 19.4039 46.4033 19.6088 46.3948 19.8136C46.3926 19.9907 46.371 20.1549 46.3546 20.4123C46.1903 23.042 41.273 42.6681 41.273 42.6681C41.273 42.6681 40.9788 43.8165 39.9247 43.8558C39.6657 43.8641 39.4076 43.8206 39.1659 43.7279C38.9241 43.6351 38.7037 43.4951 38.5178 43.316C36.4492 41.5512 29.2998 36.7855 27.72 35.7374C27.6844 35.7133 27.6543 35.6819 27.632 35.6454C27.6096 35.6088 27.5954 35.5679 27.5903 35.5254C27.5682 35.415 27.6894 35.2781 27.6894 35.2781C27.6894 35.2781 40.1384 24.3025 40.4697 23.1503C40.4953 23.061 40.3984 23.017 40.2683 23.0561C39.4415 23.3578 25.1079 32.3359 23.526 33.3268C23.4121 33.3609 23.2917 33.3682 23.1745 33.348Z" fill="white"/>
</svg>
