<svg width="25" height="25" viewBox="0 0 25 25" fill="none" xmlns="http://www.w3.org/2000/svg">
<mask id="mask0_1_1308" style="mask-type:alpha" maskUnits="userSpaceOnUse" x="0" y="0" width="25" height="25">
<rect x="0.440002" y="0.379883" width="24" height="24" fill="#D9D9D9"/>
</mask>
<g mask="url(#mask0_1_1308)">
<path d="M13.3153 11.7299V8.87988C13.3153 8.65558 13.2394 8.46756 13.0877 8.31582C12.936 8.16408 12.7479 8.08822 12.5236 8.08822C12.2993 8.08822 12.1113 8.16408 11.9596 8.31582C11.8078 8.46756 11.732 8.65558 11.732 8.87988V12.0268C11.732 12.1323 11.7518 12.2346 11.7913 12.3335C11.8309 12.4325 11.8903 12.5215 11.9695 12.6007L14.582 15.2132C14.7271 15.3584 14.9118 15.4309 15.1361 15.4309C15.3604 15.4309 15.5452 15.3584 15.6903 15.2132C15.8354 15.0681 15.908 14.8834 15.908 14.659C15.908 14.4347 15.8354 14.25 15.6903 14.1049L13.3153 11.7299ZM12.5236 19.9632C11.4285 19.9632 10.3993 19.7554 9.43613 19.3398C8.47294 18.9242 7.63509 18.3601 6.92259 17.6476C6.21009 16.9351 5.64603 16.0972 5.2304 15.1341C4.81478 14.1709 4.60696 13.1417 4.60696 12.0465C4.60696 10.9514 4.81478 9.92224 5.2304 8.95905C5.64603 7.99586 6.21009 7.15801 6.92259 6.44551C7.63509 5.73301 8.47294 5.16895 9.43613 4.75332C10.3993 4.3377 11.4285 4.12988 12.5236 4.12988C13.6188 4.12988 14.6479 4.3377 15.6111 4.75332C16.5743 5.16895 17.4122 5.73301 18.1247 6.44551C18.8372 7.15801 19.4012 7.99586 19.8169 8.95905C20.2325 9.92224 20.4403 10.9514 20.4403 12.0465C20.4403 13.1417 20.2325 14.1709 19.8169 15.1341C19.4012 16.0972 18.8372 16.9351 18.1247 17.6476C17.4122 18.3601 16.5743 18.9242 15.6111 19.3398C14.6479 19.7554 13.6188 19.9632 12.5236 19.9632Z" fill="#644F43"/>
</g>
</svg>
